<mxfile host="app.diagrams.net" agent="Mozilla/5.0 (Windows NT 10.0; Win64; x64) AppleWebKit/537.36 (KHTML, like Gecko) Chrome/129.0.0.0 Safari/537.36" version="24.7.17">
  <diagram name="Page-1" id="lBWcg9Z9sCO9r4wNu5m9">
    <mxGraphModel dx="934" dy="1245" grid="1" gridSize="10" guides="1" tooltips="1" connect="1" arrows="1" fold="1" page="1" pageScale="1" pageWidth="827" pageHeight="1169" math="0" shadow="0">
      <root>
        <mxCell id="0" />
        <mxCell id="1" parent="0" />
        <mxCell id="5CoVTgvuLOkGgE_LccDR-26" style="edgeStyle=orthogonalEdgeStyle;rounded=0;orthogonalLoop=1;jettySize=auto;html=1;endArrow=open;endFill=0;" parent="1" edge="1">
          <mxGeometry relative="1" as="geometry">
            <mxPoint x="360" y="430" as="sourcePoint" />
            <mxPoint x="360" y="490" as="targetPoint" />
            <Array as="points">
              <mxPoint x="360" y="480" />
              <mxPoint x="360" y="480" />
            </Array>
          </mxGeometry>
        </mxCell>
        <mxCell id="5CoVTgvuLOkGgE_LccDR-27" value="Order Information," style="edgeLabel;html=1;align=center;verticalAlign=middle;resizable=0;points=[];" parent="5CoVTgvuLOkGgE_LccDR-26" connectable="0" vertex="1">
          <mxGeometry x="0.7941" y="2" relative="1" as="geometry">
            <mxPoint x="-52" y="-24" as="offset" />
          </mxGeometry>
        </mxCell>
        <mxCell id="5CoVTgvuLOkGgE_LccDR-1" value="Order System" style="whiteSpace=wrap;html=1;aspect=fixed;" parent="1" vertex="1">
          <mxGeometry x="340" y="320" width="100" height="100" as="geometry" />
        </mxCell>
        <mxCell id="5CoVTgvuLOkGgE_LccDR-4" style="edgeStyle=orthogonalEdgeStyle;rounded=0;orthogonalLoop=1;jettySize=auto;html=1;endArrow=open;endFill=0;" parent="1" source="5CoVTgvuLOkGgE_LccDR-2" edge="1">
          <mxGeometry relative="1" as="geometry">
            <mxPoint x="330" y="370" as="targetPoint" />
          </mxGeometry>
        </mxCell>
        <mxCell id="5CoVTgvuLOkGgE_LccDR-5" value="Check Availability,&lt;div&gt;Place Order,&lt;/div&gt;&lt;div&gt;Cancel Order&lt;/div&gt;" style="edgeLabel;html=1;align=center;verticalAlign=middle;resizable=0;points=[];" parent="5CoVTgvuLOkGgE_LccDR-4" connectable="0" vertex="1">
          <mxGeometry x="0.0581" y="-2" relative="1" as="geometry">
            <mxPoint y="-32" as="offset" />
          </mxGeometry>
        </mxCell>
        <mxCell id="5CoVTgvuLOkGgE_LccDR-2" value="Employee" style="shape=umlActor;verticalLabelPosition=bottom;verticalAlign=top;html=1;outlineConnect=0;" parent="1" vertex="1">
          <mxGeometry x="140" y="340" width="30" height="60" as="geometry" />
        </mxCell>
        <mxCell id="5CoVTgvuLOkGgE_LccDR-6" value="Customer" style="shape=umlActor;verticalLabelPosition=bottom;verticalAlign=top;html=1;outlineConnect=0;" parent="1" vertex="1">
          <mxGeometry x="200" y="505" width="30" height="60" as="geometry" />
        </mxCell>
        <mxCell id="5CoVTgvuLOkGgE_LccDR-16" style="edgeStyle=orthogonalEdgeStyle;rounded=0;orthogonalLoop=1;jettySize=auto;html=1;endArrow=open;endFill=0;" parent="1" source="5CoVTgvuLOkGgE_LccDR-15" edge="1">
          <mxGeometry relative="1" as="geometry">
            <mxPoint x="450" y="370" as="targetPoint" />
          </mxGeometry>
        </mxCell>
        <mxCell id="5CoVTgvuLOkGgE_LccDR-17" value="See Logs" style="edgeLabel;html=1;align=center;verticalAlign=middle;resizable=0;points=[];" parent="5CoVTgvuLOkGgE_LccDR-16" connectable="0" vertex="1">
          <mxGeometry x="-0.0208" relative="1" as="geometry">
            <mxPoint y="-10" as="offset" />
          </mxGeometry>
        </mxCell>
        <mxCell id="5CoVTgvuLOkGgE_LccDR-15" value="Admin" style="shape=umlActor;verticalLabelPosition=bottom;verticalAlign=top;html=1;outlineConnect=0;" parent="1" vertex="1">
          <mxGeometry x="570" y="340" width="30" height="60" as="geometry" />
        </mxCell>
        <mxCell id="5CoVTgvuLOkGgE_LccDR-19" style="edgeStyle=orthogonalEdgeStyle;rounded=0;orthogonalLoop=1;jettySize=auto;html=1;endArrow=open;endFill=0;" parent="1" edge="1">
          <mxGeometry relative="1" as="geometry">
            <mxPoint x="170" y="390" as="targetPoint" />
            <mxPoint x="330" y="390" as="sourcePoint" />
          </mxGeometry>
        </mxCell>
        <mxCell id="5CoVTgvuLOkGgE_LccDR-20" value="Availability,&lt;br&gt;payment reminder warnings" style="edgeLabel;html=1;align=center;verticalAlign=middle;resizable=0;points=[];" parent="5CoVTgvuLOkGgE_LccDR-19" connectable="0" vertex="1">
          <mxGeometry x="0.0581" y="-2" relative="1" as="geometry">
            <mxPoint x="15" y="22" as="offset" />
          </mxGeometry>
        </mxCell>
        <mxCell id="5CoVTgvuLOkGgE_LccDR-21" style="edgeStyle=orthogonalEdgeStyle;rounded=0;orthogonalLoop=1;jettySize=auto;html=1;endArrow=open;endFill=0;" parent="1" edge="1">
          <mxGeometry relative="1" as="geometry">
            <mxPoint x="570" y="390" as="targetPoint" />
            <mxPoint x="450" y="390" as="sourcePoint" />
          </mxGeometry>
        </mxCell>
        <mxCell id="5CoVTgvuLOkGgE_LccDR-22" value="Logs" style="edgeLabel;html=1;align=center;verticalAlign=middle;resizable=0;points=[];" parent="5CoVTgvuLOkGgE_LccDR-21" connectable="0" vertex="1">
          <mxGeometry x="0.0581" y="-2" relative="1" as="geometry">
            <mxPoint y="8" as="offset" />
          </mxGeometry>
        </mxCell>
        <mxCell id="FRWzkAVtECA2qCx1iSfb-3" style="edgeStyle=orthogonalEdgeStyle;rounded=0;orthogonalLoop=1;jettySize=auto;html=1;endArrow=open;endFill=0;" parent="1" edge="1">
          <mxGeometry relative="1" as="geometry">
            <mxPoint x="240" y="545" as="targetPoint" />
            <mxPoint x="320" y="545" as="sourcePoint" />
          </mxGeometry>
        </mxCell>
        <mxCell id="FRWzkAVtECA2qCx1iSfb-4" value="Invoice&lt;br&gt;payment reminder" style="edgeLabel;html=1;align=center;verticalAlign=middle;resizable=0;points=[];" parent="FRWzkAVtECA2qCx1iSfb-3" connectable="0" vertex="1">
          <mxGeometry x="0.1043" relative="1" as="geometry">
            <mxPoint x="4" y="-25" as="offset" />
          </mxGeometry>
        </mxCell>
        <mxCell id="FRWzkAVtECA2qCx1iSfb-6" style="edgeStyle=orthogonalEdgeStyle;rounded=0;orthogonalLoop=1;jettySize=auto;html=1;" parent="1" edge="1">
          <mxGeometry relative="1" as="geometry">
            <mxPoint x="414" y="490" as="sourcePoint" />
            <mxPoint x="414" y="430" as="targetPoint" />
            <Array as="points">
              <mxPoint x="414" y="490" />
            </Array>
          </mxGeometry>
        </mxCell>
        <mxCell id="FRWzkAVtECA2qCx1iSfb-7" value="payment reminder warnings" style="edgeLabel;html=1;align=center;verticalAlign=middle;resizable=0;points=[];" parent="FRWzkAVtECA2qCx1iSfb-6" connectable="0" vertex="1">
          <mxGeometry x="-0.1435" relative="1" as="geometry">
            <mxPoint x="76" y="-4" as="offset" />
          </mxGeometry>
        </mxCell>
        <mxCell id="5CoVTgvuLOkGgE_LccDR-28" value="Accounting" style="shape=cube;whiteSpace=wrap;html=1;boundedLbl=1;backgroundOutline=1;darkOpacity=0.05;darkOpacity2=0.1;" parent="1" vertex="1">
          <mxGeometry x="340" y="505" width="120" height="80" as="geometry" />
        </mxCell>
      </root>
    </mxGraphModel>
  </diagram>
</mxfile>
